<svg width="1462" height="1463" xmlns="http://www.w3.org/2000/svg" xmlns:xlink="http://www.w3.org/1999/xlink" xml:space="preserve" overflow="hidden"><defs><filter id="fx0" x="-10%" y="-10%" width="120%" height="120%" filterUnits="userSpaceOnUse" primitiveUnits="userSpaceOnUse"><feComponentTransfer color-interpolation-filters="sRGB"><feFuncR type="discrete" tableValues="0 0"/><feFuncG type="discrete" tableValues="0 0"/><feFuncB type="discrete" tableValues="0 0"/><feFuncA type="linear" slope="0.4" intercept="0"/></feComponentTransfer><feGaussianBlur stdDeviation="6.11111 6.11111"/></filter><filter id="fx1" x="-10%" y="-10%" width="120%" height="120%" filterUnits="userSpaceOnUse" primitiveUnits="userSpaceOnUse"><feComponentTransfer color-interpolation-filters="sRGB"><feFuncR type="discrete" tableValues="0 0"/><feFuncG type="discrete" tableValues="0 0"/><feFuncB type="discrete" tableValues="0 0"/><feFuncA type="linear" slope="0.4" intercept="0"/></feComponentTransfer><feGaussianBlur stdDeviation="6.11111 6.11111"/></filter><filter id="fx2" x="-10%" y="-10%" width="120%" height="120%" filterUnits="userSpaceOnUse" primitiveUnits="userSpaceOnUse"><feComponentTransfer color-interpolation-filters="sRGB"><feFuncR type="discrete" tableValues="0 0"/><feFuncG type="discrete" tableValues="0 0"/><feFuncB type="discrete" tableValues="0 0"/><feFuncA type="linear" slope="0.4" intercept="0"/></feComponentTransfer><feGaussianBlur stdDeviation="6.11111 6.11111"/></filter><filter id="fx3" x="-10%" y="-10%" width="120%" height="120%" filterUnits="userSpaceOnUse" primitiveUnits="userSpaceOnUse"><feComponentTransfer color-interpolation-filters="sRGB"><feFuncR type="discrete" tableValues="0 0"/><feFuncG type="discrete" tableValues="0 0"/><feFuncB type="discrete" tableValues="0 0"/><feFuncA type="linear" slope="0.4" intercept="0"/></feComponentTransfer><feGaussianBlur stdDeviation="6.11111 6.11111"/></filter><filter id="fx4" x="-10%" y="-10%" width="120%" height="120%" filterUnits="userSpaceOnUse" primitiveUnits="userSpaceOnUse"><feComponentTransfer color-interpolation-filters="sRGB"><feFuncR type="discrete" tableValues="0 0"/><feFuncG type="discrete" tableValues="0 0"/><feFuncB type="discrete" tableValues="0 0"/><feFuncA type="linear" slope="0.4" intercept="0"/></feComponentTransfer><feGaussianBlur stdDeviation="6.11111 6.11111"/></filter><filter id="fx5" x="-10%" y="-10%" width="120%" height="120%" filterUnits="userSpaceOnUse" primitiveUnits="userSpaceOnUse"><feComponentTransfer color-interpolation-filters="sRGB"><feFuncR type="discrete" tableValues="0 0"/><feFuncG type="discrete" tableValues="0 0"/><feFuncB type="discrete" tableValues="0 0"/><feFuncA type="linear" slope="0.4" intercept="0"/></feComponentTransfer><feGaussianBlur stdDeviation="6.11111 6.11111"/></filter><clipPath id="clip6"><path d="M831.169 522.5C758.45 522.5 699.5 581.45 699.5 654.169L699.5 1482.83C699.5 1555.55 758.45 1614.5 831.169 1614.5L1357.83 1614.5C1430.55 1614.5 1489.5 1555.55 1489.5 1482.83L1489.5 654.169C1489.5 581.45 1430.55 522.5 1357.83 522.5ZM363 336 1825 336 1825 1799 363 1799Z" fill-rule="evenodd" clip-rule="evenodd"/></clipPath><linearGradient x1="589.625" y1="563.625" x2="1599.38" y2="1573.38" gradientUnits="userSpaceOnUse" spreadMethod="reflect" id="stroke7"><stop offset="0" stop-color="#E261E5"/><stop offset="0.25" stop-color="#B545E7"/><stop offset="0.5" stop-color="#6927ED"/><stop offset="0.75" stop-color="#6265F4"/><stop offset="1" stop-color="#7DF0FF"/></linearGradient><linearGradient x1="817.333" y1="529.833" x2="1370.67" y2="1083.17" gradientUnits="userSpaceOnUse" spreadMethod="reflect" id="stroke8"><stop offset="0" stop-color="#E261E5"/><stop offset="0.25" stop-color="#B545E7"/><stop offset="0.5" stop-color="#6927ED"/><stop offset="0.75" stop-color="#6265F4"/><stop offset="1" stop-color="#7DF0FF"/></linearGradient><linearGradient x1="597.478" y1="0.000180446" x2="-34.375" y2="0.000180446" gradientUnits="userSpaceOnUse" spreadMethod="reflect" id="stroke9"><stop offset="0" stop-color="#E261E5"/><stop offset="0.25" stop-color="#B545E7"/><stop offset="0.5" stop-color="#6927ED"/><stop offset="0.75" stop-color="#6265F4"/><stop offset="1" stop-color="#7DF0FF"/></linearGradient><linearGradient x1="384.181" y1="0.000180446" x2="-34.375" y2="0.000180446" gradientUnits="userSpaceOnUse" spreadMethod="reflect" id="stroke10"><stop offset="0" stop-color="#E261E5"/><stop offset="0.25" stop-color="#B545E7"/><stop offset="0.5" stop-color="#6927ED"/><stop offset="0.75" stop-color="#6265F4"/><stop offset="1" stop-color="#7DF0FF"/></linearGradient><linearGradient x1="193.636" y1="0.000180446" x2="-34.375" y2="0.000180446" gradientUnits="userSpaceOnUse" spreadMethod="reflect" id="stroke11"><stop offset="0" stop-color="#E261E5"/><stop offset="0.25" stop-color="#B545E7"/><stop offset="0.5" stop-color="#6927ED"/><stop offset="0.75" stop-color="#6265F4"/><stop offset="1" stop-color="#7DF0FF"/></linearGradient><linearGradient x1="910" y1="1268" x2="1278" y2="1636" gradientUnits="userSpaceOnUse" spreadMethod="reflect" id="fill12"><stop offset="0" stop-color="#E261E5"/><stop offset="0.25" stop-color="#B545E7"/><stop offset="0.5" stop-color="#6927ED"/><stop offset="0.75" stop-color="#6265F4"/><stop offset="1" stop-color="#7DF0FF"/></linearGradient></defs><g transform="translate(-363 -336)"><g clip-path="url(#clip6)"><g filter="url(#fx0)" transform="translate(645 482)"><g><path d="M54.5001 185.919C54.5001 113.2 113.45 54.25 186.169 54.25L712.831 54.25C785.549 54.25 844.5 113.2 844.5 185.919L844.5 1014.58C844.5 1087.3 785.549 1146.25 712.831 1146.25L186.169 1146.25C113.45 1146.25 54.5001 1087.3 54.5001 1014.58Z" stroke="#FF0000" stroke-width="69" stroke-miterlimit="8" fill="#FFFFFF" fill-rule="evenodd"/></g></g></g><path d="M699.5 654.169C699.5 581.45 758.451 522.5 831.169 522.5L1357.83 522.5C1430.55 522.5 1489.5 581.45 1489.5 654.169L1489.5 1482.83C1489.5 1555.55 1430.55 1614.5 1357.83 1614.5L831.169 1614.5C758.451 1614.5 699.5 1555.55 699.5 1482.83Z" stroke="url(#stroke7)" stroke-width="68.75" stroke-miterlimit="8" fill="#FFFFFF" fill-rule="evenodd"/><g filter="url(#fx1)" transform="translate(734 587)"><g><path d="M42.9999 106.251C42.9999 71.1805 71.4304 42.75 106.501 42.75L613.499 42.75C648.57 42.75 677 71.1805 677 106.251L677 360.249C677 395.319 648.57 423.75 613.499 423.75L106.501 423.75C71.4304 423.75 42.9999 395.319 42.9999 360.249Z" stroke="#FF0000" stroke-width="46" stroke-miterlimit="8" fill="none" fill-rule="evenodd"/></g></g><path d="M777 679.501C777 644.431 805.43 616 840.501 616L1347.5 616C1382.57 616 1411 644.431 1411 679.501L1411 933.499C1411 968.569 1382.57 997 1347.5 997L840.501 997C805.43 997 777 968.569 777 933.499Z" stroke="url(#stroke8)" stroke-width="45.8333" stroke-miterlimit="8" fill="none" fill-rule="evenodd"/><g filter="url(#fx2)" transform="translate(758 1065)"><g><path d="M0 0 563.103 0.000360892" stroke="#FF0000" stroke-width="69" stroke-linecap="round" stroke-miterlimit="8" fill="none" fill-rule="evenodd" transform="matrix(-1 0 0 1 617.603 54.25)"/></g></g><path d="M0 0 563.103 0.000360892" stroke="url(#stroke9)" stroke-width="68.75" stroke-linecap="round" stroke-miterlimit="8" fill="none" fill-rule="evenodd" transform="matrix(-1 0 0 1 1375.6 1105.5)"/><g filter="url(#fx3)" transform="translate(972 1170)"><g><path d="M0 0 349.807 0.000360892" stroke="#FF0000" stroke-width="69" stroke-linecap="round" stroke-miterlimit="8" fill="none" fill-rule="evenodd" transform="matrix(-1 0 0 1 404.306 54.2499)"/></g></g><path d="M0 0 349.807 0.000360892" stroke="url(#stroke10)" stroke-width="68.75" stroke-linecap="round" stroke-miterlimit="8" fill="none" fill-rule="evenodd" transform="matrix(-1 0 0 1 1376.31 1210.5)"/><g filter="url(#fx4)" transform="translate(1162 1275)"><g><path d="M0 0 159.261 0.000360892" stroke="#FF0000" stroke-width="69" stroke-linecap="round" stroke-miterlimit="8" fill="none" fill-rule="evenodd" transform="matrix(-1 0 0 1 213.761 54.25)"/></g></g><path d="M0 0 159.261 0.000360892" stroke="url(#stroke11)" stroke-width="68.75" stroke-linecap="round" stroke-miterlimit="8" fill="none" fill-rule="evenodd" transform="matrix(-1 0 0 1 1375.76 1315.5)"/><g filter="url(#fx5)" transform="translate(757 1395)"><g><path d="M19.9999 70.7503C19.9999 42.5837 42.8334 19.7501 71 19.7501L603.001 19.7501C631.167 19.7501 654.001 42.5837 654.001 70.7503L654 70.7503C654 98.917 631.167 121.751 603 121.751L71 121.75C42.8334 121.75 19.9999 98.9163 19.9999 70.7496Z" fill="#FF0000" fill-rule="evenodd"/></g></g><path d="M777 1452C777 1423.83 799.833 1401 828 1401L1360 1401C1388.17 1401 1411 1423.83 1411 1452L1411 1452C1411 1480.17 1388.17 1503 1360 1503L828 1503C799.833 1503 777 1480.17 777 1452Z" fill="url(#fill12)" fill-rule="evenodd"/></g></svg>