<svg width="1910" height="1139" xmlns="http://www.w3.org/2000/svg" xmlns:xlink="http://www.w3.org/1999/xlink" xml:space="preserve" overflow="hidden"><defs><filter id="fx0" x="-10%" y="-10%" width="120%" height="120%" filterUnits="userSpaceOnUse" primitiveUnits="userSpaceOnUse"><feComponentTransfer color-interpolation-filters="sRGB"><feFuncR type="discrete" tableValues="0 0"/><feFuncG type="discrete" tableValues="0 0"/><feFuncB type="discrete" tableValues="0 0"/><feFuncA type="linear" slope="0.4" intercept="0"/></feComponentTransfer><feGaussianBlur stdDeviation="4.39747 4.40349"/></filter><linearGradient x1="1734.87" y1="426.365" x2="2665.13" y2="2037.62" gradientUnits="userSpaceOnUse" spreadMethod="reflect" id="fill1"><stop offset="0" stop-color="#77B0AA"/><stop offset="0.5" stop-color="#135D66"/><stop offset="1" stop-color="#003C43"/></linearGradient></defs><g transform="translate(-1245 -668)"><g filter="url(#fx0)" transform="matrix(2 0 0 1.99727 1287 856)"><g><path d="M787.832 112.026 700.536 214.891 787.832 214.891ZM179.332 112.026 92.0364 214.891 179.332 214.891ZM459.953 74.4254C444.96 74.4254 434.124 82.0433 427.445 97.2789 420.765 112.515 417.425 140.719 417.425 181.893 417.425 223.512 421.099 251.939 428.447 267.175 435.794 282.411 446.445 290.029 460.398 290.029 469.601 290.029 477.58 286.796 484.333 280.33 491.087 273.864 496.06 263.645 499.251 249.673 502.443 235.7 504.039 213.925 504.039 184.345 504.039 140.942 500.365 111.771 493.017 96.833 485.669 81.8946 474.648 74.4254 459.953 74.4254ZM787.832 14.003 866.874 14.003 866.874 214.891 907.843 214.891 907.843 285.346 866.874 285.346 866.874 346.438 787.832 346.438 787.832 285.346 622.621 285.346 622.621 210.654ZM463.07 14.003C485.039 14.003 503.074 16.7157 517.175 22.1411 531.277 27.5665 542.781 34.6269 551.687 43.3224 560.593 52.0179 567.607 61.1593 572.728 70.7466 577.849 80.3339 581.968 91.5191 585.085 104.302 591.171 128.679 594.214 154.097 594.214 180.555 594.214 239.862 584.195 283.265 564.156 310.764 544.117 338.262 509.605 352.012 460.621 352.012 433.16 352.012 410.968 347.627 394.046 338.857 377.125 330.087 363.246 317.23 352.41 300.285 344.542 288.245 338.419 271.783 334.041 250.899 329.662 230.015 327.472 206.938 327.472 181.67 327.472 119.538 338.642 76.0605 360.982 51.2375 383.322 26.4145 417.351 14.003 463.07 14.003ZM179.332 14.003 258.375 14.003 258.375 214.891 299.343 214.891 299.343 285.346 258.375 285.346 258.375 346.438 179.332 346.438 179.332 285.346 14.1206 285.346 14.1206 210.654Z" fill="#FF0000" fill-rule="evenodd"/></g></g><path d="M2853.47 1070.55 2678.88 1276 2853.47 1276ZM1636.47 1070.55 1461.88 1276 1636.47 1276ZM2197.71 995.453C2167.73 995.453 2146.05 1010.67 2132.7 1041.1 2119.34 1071.53 2112.66 1127.86 2112.66 1210.09 2112.66 1293.22 2120 1350 2134.7 1380.43 2149.39 1410.86 2170.7 1426.07 2198.6 1426.07 2217.01 1426.07 2232.96 1419.61 2246.47 1406.7 2259.98 1393.78 2269.93 1373.37 2276.31 1345.47 2282.69 1317.56 2285.88 1274.07 2285.88 1214.99 2285.88 1128.3 2278.53 1070.04 2263.84 1040.21 2249.14 1010.37 2227.1 995.453 2197.71 995.453ZM2853.47 874.773 3011.55 874.773 3011.55 1276 3093.49 1276 3093.49 1416.72 3011.55 1416.72 3011.55 1538.73 2853.47 1538.73 2853.47 1416.72 2523.05 1416.72 2523.05 1267.54ZM2203.94 874.773C2247.88 874.773 2283.95 880.191 2312.16 891.027 2340.36 901.863 2363.37 915.965 2381.18 933.332 2398.99 950.699 2413.02 968.957 2423.26 988.105 2433.5 1007.25 2441.74 1029.59 2447.98 1055.12 2460.15 1103.81 2466.23 1154.58 2466.23 1207.42 2466.23 1325.87 2446.2 1412.56 2406.12 1467.48 2366.04 1522.41 2297.02 1549.87 2199.05 1549.87 2144.12 1549.87 2099.74 1541.11 2065.9 1523.59 2032.05 1506.08 2004.3 1480.4 1982.62 1446.55 1966.89 1422.51 1954.64 1389.63 1945.89 1347.92 1937.13 1306.21 1932.75 1260.12 1932.75 1209.65 1932.75 1085.55 1955.09 998.719 1999.77 949.14 2044.45 899.562 2112.51 874.773 2203.94 874.773ZM1636.47 874.773 1794.55 874.773 1794.55 1276 1876.49 1276 1876.49 1416.72 1794.55 1416.72 1794.55 1538.73 1636.47 1538.73 1636.47 1416.72 1306.05 1416.72 1306.05 1267.54Z" fill="url(#fill1)" fill-rule="evenodd"/><text fill="#000000" fill-opacity="0" font-family="Arial,Arial_MSFontService,sans-serif" font-size="675.094" x="1306.05" y="1465.48">404</text></g></svg>